<?xml version="1.0" encoding="UTF-8"?>
<svg width="33.459mm" height="12.179mm" version="1.1" viewBox="0 0 33.459 12.179" xmlns="http://www.w3.org/2000/svg"><g transform="translate(-15.817 -13.237)"><g transform="scale(.26458)" style="font-feature-settings:normal;font-variant-caps:small-caps;font-variant-ligatures:normal;font-variant-numeric:normal" aria-label="Soque River ~~ Co-op ~~"><path d="m68.606 50.687q0.32812 1.6523 0.43359 3.0938-0.29297 0.22266-0.78516 0.14062-0.21094-0.67969-0.44531-1.1602-0.22266-0.48047-0.62109-0.94922-0.39844-0.48047-1.0312-0.71484-0.62109-0.24609-1.4531-0.24609-1.043 0-1.8398 0.83203-0.78516 0.83203-0.78516 1.8516 0 0.57422 0.28125 1.0898t0.63281 0.84375q0.35156 0.32812 0.96094 0.66797 0.60938 0.33984 0.97266 0.49219 0.36328 0.14062 0.97266 0.375 0.83203 0.31641 1.4531 0.65625t1.2188 0.85547 0.90234 1.2539q0.31641 0.72656 0.31641 1.6406 0 1.1367-0.60938 2.1797-0.60938 1.043-1.6406 1.6875-1.2656 0.78516-2.9648 0.78516-1.1367 0-2.3906-0.26953-1.2422-0.28125-1.9219-0.28125-0.36328-1.5117-0.48047-3.6445 0.375-0.19922 0.78516-0.07031 0.75 3.4102 4.207 3.4102 1.4414 0 2.2148-0.75 0.78516-0.76172 0.78516-2.2031 0-0.67969-0.21094-1.2305-0.21094-0.55078-0.48047-0.87891-0.26953-0.33984-0.78516-0.64453-0.51562-0.31641-0.83203-0.45703-0.31641-0.14062-0.91406-0.36328-0.90234-0.33984-1.5703-0.69141-0.65625-0.36328-1.3008-0.89062-0.64453-0.53906-0.98438-1.2656-0.33984-0.73828-0.33984-1.6406 0-1.8516 1.3359-3 1.3477-1.1602 3.2344-1.1602 1.3711 0 2.3555 0.30469 0.99609 0.30469 1.3242 0.35156z" style="font-feature-settings:normal;font-variant-caps:small-caps;font-variant-ligatures:normal;font-variant-numeric:normal"/><path d="m77.337 55.339q-1.4648 0-2.5312 1.2891-1.0664 1.2773-1.0664 3.5859 0 2.2031 1.1133 3.6328 1.1133 1.4297 2.8711 1.4297 1.6289 0 2.6133-1.2773 0.98438-1.2891 0.98438-3.4805 0-2.332-1.1719-3.75-1.1602-1.4297-2.8125-1.4297zm6.0703 4.8516q0 2.4727-1.6055 4.1719t-4.4414 1.6992q-2.4492 0-4.0781-1.5703-1.6289-1.5703-1.6289-3.9961 0-2.6133 1.6875-4.2773 1.6992-1.6758 4.2188-1.6758 2.4258 0 4.1367 1.582 1.7109 1.5703 1.7109 4.0664z" style="font-feature-settings:normal;font-variant-caps:small-caps;font-variant-ligatures:normal;font-variant-numeric:normal"/><path d="m107.21 57.718q0-1.4414-0.29297-1.7695-0.28125-0.33984-1.4414-0.42188-0.10547-0.10547-0.10547-0.38672 0-0.29297 0.10547-0.39844 1.4414 0.04687 2.2852 0.04687 0.86719 0 2.3086-0.04687 0.10547 0.10547 0.10547 0.39844 0 0.28125-0.10547 0.38672-1.1484 0.09375-1.4414 0.42188t-0.29297 1.7695v2.7305q0 5.6133-5.3555 5.6133-3.7148 0-3.7148-4.582v-3.7617q0-1.4414-0.29297-1.7695-0.28125-0.33984-1.4297-0.42188-0.10547-0.10547-0.11719-0.38672 0-0.29297 0.11719-0.39844 2.0625 0.04687 2.6602 0.04687 0.66796 0 2.6836-0.04687 0.10547 0.10547 0.10547 0.39844 0 0.28125-0.10547 0.38672-1.1484 0.09375-1.4414 0.42188-0.28125 0.32812-0.28125 1.7695v3.2578q0 0.96094 0.0937 1.6406 0.0937 0.66797 0.36328 1.3359 0.28125 0.65625 0.89063 0.99609 0.62109 0.32812 1.5352 0.32812 0.77343 0 1.3242-0.16406 0.5625-0.17578 0.90235-0.55078 0.33984-0.38672 0.53906-0.75 0.21094-0.36328 0.29297-0.98438 0.082-0.62109 0.0937-0.99609t0.0117-1.0664zm-17.859 10.172q-0.31641 0-0.73828 0.26953-0.41016 0.28125-0.67969 0.85547l-0.73828-0.35156q0.45703-0.65625 1.3008-1.3711 0.85547-0.71484 1.8281-1.2422-2.2617-0.17578-3.7266-1.7109-1.4648-1.5469-1.4648-3.8438 0-2.6133 1.6875-4.2773 1.6875-1.6758 4.2188-1.6758 2.4258 0 4.1367 1.582 1.7109 1.5703 1.7109 4.0664 0 2.0977-1.1836 3.6914-1.1836 1.582-3.3164 2.0273-1.5938 0.49219-2.5781 1.1602 0.04687-0.01172 0.1875-0.01172 0.91406 0 1.4414 0.14062 1.4297 0.375 2.5078 0.82031 1.0781 0.45703 1.6992 0.63281 0.63281 0.1875 1.7461 0.1875 1.4883 0 3.3398-0.60938 1.8516-0.59766 2.6602-1.1602l0.30468 0.23438q-0.75 0.79688-2.9531 1.5703-2.1914 0.77344-4.2891 0.77344-1.1133 0-2.2266-0.28125-1.1016-0.26953-1.8398-0.59766-0.72656-0.32812-1.5703-0.60938-0.83203-0.26953-1.4648-0.26953zm1.4648-12.551q-1.4648 0-2.5312 1.2891-1.0664 1.2773-1.0664 3.5859 0 2.2031 1.1133 3.6328 1.1133 1.4297 2.8711 1.4297 1.6289 0 2.6133-1.2773 0.98438-1.2891 0.98438-3.4805 0-2.332-1.1719-3.75-1.1602-1.4297-2.8125-1.4297z" style="font-feature-settings:normal;font-variant-caps:small-caps;font-variant-ligatures:normal;font-variant-numeric:normal"/><path d="m116.65 60.425h-1.3711v3.5977q0 0.59766 0.24609 0.83203 0.25781 0.23438 1.0078 0.23438h1.0312q1.3711 0 2.0508-0.69141 0.67969-0.70312 1.0195-1.9336 0.33984-0.09375 0.66796 0.09375-0.33984 1.9688-0.71484 3.3164-1.582-0.04687-2.543-0.04687h-3.7031q-0.96094 0-2.6836 0.04687-0.0937-0.09375-0.0937-0.375 0-0.29297 0.0937-0.41016 1.1484-0.09375 1.4297-0.42188 0.29297-0.32812 0.29297-1.7695v-5.1797q0-1.4414-0.29297-1.7695-0.28125-0.33984-1.4297-0.42188-0.0937-0.11719-0.0937-0.39844 0-0.29297 0.0937-0.38672 1.7227 0.04687 2.6602 0.04687h4.9688q0.55078 0 0.98437-0.09375 0.0703 0 0.0703 0.07031 0.16406 0.57422 0.43359 2.8594-0.31641 0.14062-0.64453 0.11719-0.26953-0.82031-0.46875-1.1953-0.19922-0.38672-0.76172-0.66797-0.55078-0.29297-1.4883-0.29297h-1.3594q-0.33984 0-0.5625 0.17578-0.21093 0.17578-0.21093 0.49219v3.4102h1.3711q1.1016 0 1.3477-0.23438 0.25781-0.24609 0.30468-1.1133 0.0937-0.09375 0.32813-0.09375 0.24609 0 0.35156 0.09375-0.0469 1.1953-0.0586 1.6992 0 0.64453 0.0586 1.7578-0.0937 0.09375-0.33984 0.09375-0.2461 0-0.33985-0.09375-0.0234-0.41016-0.0586-0.59766-0.0352-0.19922-0.19922-0.39844-0.15234-0.21094-0.49219-0.28125-0.32812-0.07031-0.90234-0.07031z" style="font-feature-settings:normal;font-variant-caps:small-caps;font-variant-ligatures:normal;font-variant-numeric:normal"/><path d="m134.67 50.992q-1.9922 0-1.9922 1.5352v5.4961h1.1484q1.9453 0 2.9883-0.78516 1.043-0.79688 1.043-2.8828 0-3.3633-3.1875-3.3633zm-1.9922 11.906q0 1.4414 0.375 1.793 0.375 0.33984 1.7109 0.39844 0.0937 0.11719 0.0937 0.41016 0 0.28125-0.0937 0.375-2.1094-0.04687-3.0938-0.04687-0.96094 0-3.1172 0.04687-0.11719-0.09375-0.11719-0.375 0-0.29297 0.11719-0.41016 1.3477-0.04687 1.7109-0.39844 0.375-0.35156 0.375-1.793v-9.6211q0-1.4414-0.375-1.7812-0.36328-0.35156-1.7109-0.39844-0.11719-0.09375-0.11719-0.38672t0.11719-0.41016q2.2617 0.04687 3.0938 0.04687 0.41016 0 1.4062-0.08203 0.9961-0.08203 1.5938-0.08203 1.418 0 2.4024 0.22266 0.98437 0.21094 1.7461 0.92578 1.2773 1.1953 1.2773 3 0 1.6523-1.043 2.6953-1.043 1.043-2.1562 1.4062l3.0352 5.0391q0.55078 0.91406 1.0547 1.3828 0.5039 0.46875 1.2422 0.46875 0.16406 0.31641 0.0234 0.57422-0.33984 0.16406-1.0078 0.16406-1.8516 0-3.1641-2.1328l-2.5664-4.1719q-0.29297-0.48047-0.85547-0.69141-0.5625-0.22266-1.957-0.22266z" style="font-feature-settings:normal;font-variant-caps:small-caps;font-variant-ligatures:normal;font-variant-numeric:normal"/><path d="m146.92 57.718v5.1797q0 1.4414 0.29297 1.7812 0.29297 0.32812 1.4414 0.41016 0.11718 0.11719 0.11718 0.41016 0 0.28125-0.11718 0.375-1.6758-0.04687-2.6719-0.04687-0.91406 0-2.6836 0.04687-0.0937-0.09375-0.0937-0.375 0-0.29297 0.0937-0.41016 1.1484-0.09375 1.4414-0.42188 0.29297-0.32812 0.29297-1.7695v-5.1797q0-1.4414-0.29297-1.7695-0.29296-0.33984-1.4414-0.42188-0.0937-0.11719-0.0937-0.39844 0-0.29297 0.0937-0.38672 1.875 0.04687 2.6602 0.04687 0.86719 0 2.6953-0.04687 0.11718 0.09375 0.11718 0.38672 0 0.28125-0.11718 0.39844-1.1484 0.09375-1.4414 0.42188t-0.29297 1.7695z" style="font-feature-settings:normal;font-variant-caps:small-caps;font-variant-ligatures:normal;font-variant-numeric:normal"/><path d="m154.09 57.144 2.4961 5.9766q0.0703 0.09375 0.16406 0l2.6133-5.9766q0.375-0.91406 0.19922-1.2305-0.16406-0.31641-1.1367-0.38672-0.0937-0.11719-0.0937-0.39844 0-0.29297 0.0937-0.38672 1.3008 0.04687 2.2148 0.04687 0.66797 0 1.7226-0.04687 0.0937 0.09375 0.0937 0.38672 0.0117 0.28125-0.0937 0.39844-0.89062 0.07031-1.2539 0.44531-0.36328 0.36328-0.79688 1.3359l-3.5156 7.8516q-0.4336 0.96094-0.59766 0.96094-0.1875 0-0.32812-0.19922-0.12891-0.1875-0.36328-0.76172l-3.3984-7.875q-0.46875-1.0781-0.78516-1.3711-0.30469-0.30469-1.1484-0.38672-0.0937-0.11719-0.0937-0.39844 0-0.29297 0.0937-0.38672 1.2422 0.04687 2.1094 0.04687 1.0547 0 2.543-0.04687 0.0937 0.09375 0.0937 0.38672 0 0.28125-0.0937 0.39844-0.96094 0.09375-1.0664 0.35156-0.10547 0.24609 0.32813 1.2656z" style="font-feature-settings:normal;font-variant-caps:small-caps;font-variant-ligatures:normal;font-variant-numeric:normal"/><path d="m168.83 60.425h-1.3711v3.5977q0 0.59766 0.2461 0.83203 0.25781 0.23438 1.0078 0.23438h1.0312q1.3711 0 2.0508-0.69141 0.67969-0.70312 1.0195-1.9336 0.33984-0.09375 0.66797 0.09375-0.33984 1.9688-0.71484 3.3164-1.582-0.04687-2.543-0.04687h-3.7031q-0.96094 0-2.6836 0.04687-0.0937-0.09375-0.0937-0.375 0-0.29297 0.0937-0.41016 1.1484-0.09375 1.4297-0.42188 0.29296-0.32812 0.29296-1.7695v-5.1797q0-1.4414-0.29296-1.7695-0.28125-0.33984-1.4297-0.42188-0.0937-0.11719-0.0937-0.39844 0-0.29297 0.0937-0.38672 1.7226 0.04687 2.6602 0.04687h4.9688q0.55079 0 0.98438-0.09375 0.0703 0 0.0703 0.07031 0.16406 0.57422 0.4336 2.8594-0.31641 0.14062-0.64454 0.11719-0.26953-0.82031-0.46875-1.1953-0.19921-0.38672-0.76171-0.66797-0.55079-0.29297-1.4883-0.29297h-1.3594q-0.33984 0-0.5625 0.17578-0.21094 0.17578-0.21094 0.49219v3.4102h1.3711q1.1016 0 1.3476-0.23438 0.25781-0.24609 0.30469-1.1133 0.0937-0.09375 0.32812-0.09375 0.2461 0 0.35157 0.09375-0.0469 1.1953-0.0586 1.6992 0 0.64453 0.0586 1.7578-0.0937 0.09375-0.33985 0.09375-0.24609 0-0.33984-0.09375-0.0234-0.41016-0.0586-0.59766-0.0352-0.19922-0.19922-0.39844-0.15235-0.21094-0.49219-0.28125-0.32813-0.07031-0.90234-0.07031z" style="font-feature-settings:normal;font-variant-caps:small-caps;font-variant-ligatures:normal;font-variant-numeric:normal"/><path d="m182.64 57.519q0-1.1016-0.46875-1.5703t-1.6992-0.46875q-1.0078 0-1.3008 0.28125-0.28125 0.26953-0.28125 1.2305v3.1289h1.0547q1.5586 0 2.1211-0.5625 0.57422-0.57422 0.57422-2.0391zm-3.75 5.3789q0 1.4414 0.23438 1.793 0.24609 0.33984 1.1367 0.39844 0.0937 0.11719 0.0937 0.41016 0 0.28125-0.0937 0.375-1.5352-0.04687-2.3086-0.04687-0.86719 0-2.6836 0.04687-0.0937-0.09375-0.0937-0.375 0-0.29297 0.0937-0.41016 1.1484-0.09375 1.4297-0.42188 0.29296-0.32812 0.29296-1.7695v-5.1797q0-1.4414-0.29296-1.7695-0.28125-0.33984-1.4297-0.42188-0.0937-0.11719-0.0937-0.39844 0-0.29297 0.0937-0.38672 1.9219 0.04687 2.6602 0.04687 0.38672 0 1.3945-0.04687 1.0078-0.04687 1.3008-0.04687 2.1328 0 3.1172 0.66797 0.98438 0.66797 0.98438 2.1562 0 1.125-0.65625 1.8984-0.64453 0.77344-1.3828 1.0312v0.04687q0.52734 0.55078 0.89062 1.4648l0.69141 1.8047q0.33984 0.89062 0.70312 1.1484 0.375 0.24609 1.1016 0.24609 0.23437 0.29297 0.14062 0.66797-0.66797 0.16406-1.5117 0.16406-1.6289 0-2.4023-2.0625l-0.52735-1.4414q-0.1875-0.55078-0.35156-0.84375-0.15234-0.30469-0.46875-0.5625-0.30469-0.26953-0.73828-0.26953h-1.3242z" style="font-feature-settings:normal;font-variant-caps:small-caps;font-variant-ligatures:normal;font-variant-numeric:normal"/><path d="m65.079 90.812q0.23438-1.2188 1.125-2.1445 0.89062-0.92578 1.9453-0.92578 0.77344 0 1.8047 0.76172 1.0781 0.79688 1.7227 0.79688 0.62109 0 1.3125-0.39844 0.70312-0.39844 1.0664-1.207 0.29297 0 0.41016 0.14062-0.33984 1.1719-0.96094 1.875-0.62109 0.69141-1.0664 0.85547-0.44531 0.15234-0.85547 0.15234-0.77344 0-1.8164-0.79688-1.0312-0.77344-1.7578-0.76172-0.64453 0-1.3828 0.49219-0.72656 0.49219-1.1367 1.2539-0.22266 0-0.41016-0.09375z" fill="#81a1c1"/><path d="m75.86 90.812q0.23438-1.2188 1.125-2.1445 0.89062-0.92578 1.9453-0.92578 0.77344 0 1.8047 0.76172 1.0781 0.79688 1.7227 0.79688 0.62109 0 1.3125-0.39844 0.70312-0.39844 1.0664-1.207 0.29297 0 0.41016 0.14062-0.33984 1.1719-0.96094 1.875-0.62109 0.69141-1.0664 0.85547-0.44531 0.15234-0.85547 0.15234-0.77344 0-1.8164-0.79688-1.0312-0.77344-1.7578-0.76172-0.64453 0-1.3828 0.49219-0.72656 0.49219-1.1367 1.2539-0.22266 0-0.41016-0.09375z" fill="#81a1c1"/><path d="m100.59 96.062q-3.6914 0-5.6836-2.1797-1.9922-2.1797-1.9922-5.4961 0-1.875 0.66797-3.5391 0.66797-1.6641 1.875-2.7773 2.2266-2.0391 5.1562-2.0391 1.7227 0 3.3633 0.53906 1.6524 0.52734 1.8984 0.55078 0.36328 1.9922 0.52734 3.7148-0.45703 0.23438-0.79687 0.11719-1.2188-4.0312-5.25-4.0312-2.0977 0-3.832 2.1328-1.4297 1.7578-1.4297 4.875 0 2.7656 1.5703 4.9688 1.5703 2.1914 3.9023 2.1914 1.6758 0 2.9883-0.60938 1.3125-0.62109 2.5781-2.0156 0.36328 0 0.55078 0.36328-2.4726 3.2344-6.0938 3.2344z" style="font-feature-settings:normal;font-variant-caps:small-caps;font-variant-ligatures:normal;font-variant-numeric:normal"/><path d="m114.11 85.339q-1.4648 0-2.5312 1.2891-1.0664 1.2773-1.0664 3.5859 0 2.2031 1.1133 3.6328 1.1133 1.4297 2.8711 1.4297 1.6289 0 2.6133-1.2773 0.98438-1.2891 0.98438-3.4805 0-2.332-1.1719-3.75-1.1602-1.4297-2.8125-1.4297zm6.0703 4.8516q0 2.4727-1.6055 4.1719-1.6055 1.6992-4.4414 1.6992-2.4492 0-4.0781-1.5703-1.6289-1.5703-1.6289-3.9961 0-2.6133 1.6875-4.2773 1.6992-1.6758 4.2188-1.6758 2.4258 0 4.1367 1.582 1.7109 1.5703 1.7109 4.0664z" style="font-feature-settings:normal;font-variant-caps:small-caps;font-variant-ligatures:normal;font-variant-numeric:normal"/><path d="m127.54 90.472h-5.1797q-0.36328 0-0.36328-0.45703 0-0.33984 0.1875-0.65625 0.19922-0.32812 0.41016-0.32812h5.2617q0.33984 0 0.32812 0.48047 0 0.23438-0.22266 0.59766-0.21093 0.36328-0.42187 0.36328z" fill="#81a1c1"/><path d="m135.72 85.339q-1.4648 0-2.5312 1.2891-1.0664 1.2773-1.0664 3.5859 0 2.2031 1.1133 3.6328 1.1133 1.4297 2.8711 1.4297 1.6289 0 2.6133-1.2773 0.98437-1.2891 0.98437-3.4805 0-2.332-1.1719-3.75-1.1602-1.4297-2.8125-1.4297zm6.0703 4.8516q0 2.4727-1.6055 4.1719t-4.4414 1.6992q-2.4492 0-4.0781-1.5703-1.6289-1.5703-1.6289-3.9961 0-2.6133 1.6875-4.2773 1.6992-1.6758 4.2188-1.6758 2.4258 0 4.1367 1.582 1.7109 1.5703 1.7109 4.0664z" style="font-feature-settings:normal;font-variant-caps:small-caps;font-variant-ligatures:normal;font-variant-numeric:normal"/><path d="m147.18 86.617v3.7383q0.66797 0.26953 1.5586 0.26953 2.0625 0 2.0625-2.6719 0-2.4258-2.1797-2.4258-0.84375 0-1.1484 0.24609-0.29297 0.24609-0.29297 0.84375zm0 6.2812q0 1.4414 0.28125 1.7812 0.29297 0.32812 1.4531 0.41016 0.11719 0.11719 0.11719 0.41016 0 0.28125-0.11719 0.375-1.582-0.04687-2.6719-0.04687-1.1016 0-2.6836 0.04687-0.0937-0.09375-0.0937-0.375 0-0.29297 0.0937-0.41016 1.1484-0.09375 1.4297-0.42188 0.29297-0.32812 0.29297-1.7695v-5.1797q0-1.4414-0.29297-1.7695-0.28125-0.33984-1.4297-0.42188-0.0937-0.11719-0.0937-0.39844 0-0.29297 0.0937-0.38672 1.9219 0.04687 2.6602 0.04687 0.29297 0 1.1719-0.02344 0.89063-0.02344 1.3711-0.02344 2.3086 0 3.2109 0.87891 0.91407 0.86719 0.91407 2.0508 0 1.3711-1.0195 2.5547-1.0195 1.1836-3.1758 1.1836-0.86718 0-1.5117-0.28125z" style="font-feature-settings:normal;font-variant-caps:small-caps;font-variant-ligatures:normal;font-variant-numeric:normal"/><path d="m160.33 90.812q0.23438-1.2188 1.125-2.1445 0.89063-0.92578 1.9453-0.92578 0.77344 0 1.8047 0.76172 1.0781 0.79688 1.7227 0.79688 0.62109 0 1.3125-0.39844 0.70312-0.39844 1.0664-1.207 0.29297 0 0.41016 0.14062-0.33984 1.1719-0.96094 1.875-0.62109 0.69141-1.0664 0.85547-0.44532 0.15234-0.85547 0.15234-0.77344 0-1.8164-0.79688-1.0312-0.77344-1.7578-0.76172-0.64453 0-1.3828 0.49219-0.72657 0.49219-1.1367 1.2539-0.22266 0-0.41016-0.09375z" fill="#81a1c1"/><path d="m171.11 90.812q0.23438-1.2188 1.125-2.1445 0.89063-0.92578 1.9453-0.92578 0.77344 0 1.8047 0.76172 1.0781 0.79688 1.7227 0.79688 0.62109 0 1.3125-0.39844 0.70312-0.39844 1.0664-1.207 0.29297 0 0.41016 0.14062-0.33984 1.1719-0.96094 1.875-0.62109 0.69141-1.0664 0.85547-0.44532 0.15234-0.85547 0.15234-0.77344 0-1.8164-0.79688-1.0312-0.77344-1.7578-0.76172-0.64453 0-1.3828 0.49219-0.72657 0.49219-1.1367 1.2539-0.22266 0-0.41016-0.09375z" fill="#81a1c1"/></g></g></svg>
